<svg xmlns="http://www.w3.org/2000/svg" xmlns:xlink="http://www.w3.org/1999/xlink" width="1080" zoomAndPan="magnify" viewBox="0 0 810 809.999993" height="1080" preserveAspectRatio="xMidYMid meet" version="1.0"><defs><clipPath id="cd1b1c8197"><path d="M 152.425781 165 L 642 165 L 642 661 L 152.425781 661 Z M 152.425781 165 " clip-rule="nonzero"/></clipPath></defs><rect x="-81" width="972" fill="#ffffff" y="-80.999999" height="971.999992" fill-opacity="1"/><rect x="-81" width="972" fill="#ffffff" y="-80.999999" height="971.999992" fill-opacity="1"/><g clip-path="url(#cd1b1c8197)"><path fill="#ffb6b6" d="M 624.558594 450.328125 C 623.546875 452.546875 622.539062 454.765625 621.429688 456.882812 L 603.566406 556.261719 C 602.257812 556.664062 601.046875 557.371094 599.933594 557.976562 C 593.78125 561.609375 587.421875 565.339844 580.460938 566.957031 C 576.625 567.863281 572.589844 568.066406 568.652344 568.367188 C 561.890625 568.773438 554.625 568.972656 549.074219 565.140625 C 547.664062 564.128906 546.351562 562.820312 544.738281 562.011719 C 543.121094 561.203125 541.105469 560.902344 539.691406 561.910156 C 539.289062 562.214844 538.882812 562.71875 538.378906 562.917969 C 536.5625 563.929688 534.644531 562.113281 533.332031 560.597656 C 532.324219 559.390625 531.316406 558.078125 530.304688 556.867188 L 528.792969 549.402344 C 507.097656 561.910156 475.8125 579.96875 475.8125 579.96875 C 475.8125 579.96875 468.144531 585.316406 454.519531 591.070312 L 444.128906 648.476562 C 442.816406 648.878906 441.605469 649.585938 440.496094 650.191406 C 434.339844 653.820312 427.980469 657.554688 421.019531 659.167969 C 417.183594 660.078125 413.148438 660.277344 409.210938 660.582031 C 402.449219 660.984375 395.183594 661.1875 389.636719 657.351562 C 388.222656 656.34375 386.910156 655.03125 385.296875 654.226562 C 383.679688 653.417969 381.664062 653.117188 380.25 654.125 C 379.847656 654.425781 379.441406 654.933594 378.9375 655.132812 C 377.121094 656.144531 375.203125 654.328125 373.894531 652.8125 C 372.882812 651.601562 371.875 650.292969 370.867188 649.082031 L 361.480469 602.671875 C 352.601562 601.359375 343.417969 599.441406 333.832031 596.515625 C 327.777344 594.699219 322.023438 592.785156 316.472656 590.664062 C 313.648438 591.976562 310.722656 593.085938 307.59375 593.792969 C 303.757812 594.699219 299.722656 594.902344 295.785156 595.203125 C 289.027344 595.609375 281.761719 595.808594 276.210938 591.976562 C 274.796875 590.96875 273.484375 589.65625 271.871094 588.847656 C 270.257812 588.042969 268.238281 587.738281 266.824219 588.746094 C 266.421875 589.050781 266.019531 589.554688 265.511719 589.757812 C 263.695312 590.765625 261.78125 588.949219 260.46875 587.4375 C 259.457031 586.226562 258.449219 584.914062 257.441406 583.703125 L 251.585938 554.847656 C 250.78125 554.140625 249.871094 553.535156 249.066406 552.832031 C 239.074219 558.179688 223.9375 556.5625 206.984375 546.777344 C 177.316406 529.425781 152.894531 493.203125 152.894531 466.164062 C 152.894531 446.390625 166.015625 436.808594 184.683594 439.832031 C 174.59375 369.007812 203.554688 305.648438 203.554688 305.648438 C 203.554688 305.648438 226.257812 255.910156 325.554688 197.394531 C 424.851562 138.878906 528.691406 164.402344 593.074219 236.84375 C 657.453125 309.28125 645.851562 402.300781 624.558594 450.328125 Z M 624.558594 450.328125 " fill-opacity="1" fill-rule="nonzero"/></g><path fill="#ff9f9f" d="M 445.238281 186.902344 L 448.464844 188.71875 C 451.59375 190.53125 451.59375 195.074219 448.464844 196.890625 L 367.03125 243.902344 C 365.617188 244.710938 363.800781 244.710938 362.289062 243.902344 L 359.058594 242.089844 C 355.929688 240.273438 355.929688 235.730469 359.058594 233.917969 L 440.496094 186.902344 C 441.90625 186.09375 443.722656 186.09375 445.238281 186.902344 Z M 181.351562 475.449219 C 175.296875 471.917969 170.351562 474.84375 170.351562 481.804688 C 170.351562 488.765625 175.296875 497.339844 181.351562 500.871094 C 187.40625 504.402344 192.351562 501.476562 192.351562 494.515625 C 192.351562 487.554688 187.40625 478.980469 181.351562 475.449219 Z M 227.367188 501.980469 C 221.3125 498.449219 216.371094 501.375 216.371094 508.339844 C 216.371094 515.300781 221.3125 523.875 227.367188 527.40625 C 233.421875 530.9375 238.367188 528.011719 238.367188 521.050781 C 238.367188 514.089844 233.421875 505.511719 227.367188 501.980469 Z M 322.023438 242.289062 L 317.886719 240.070312 C 311.023438 236.136719 295.785156 226.347656 271.769531 206.273438 C 271.46875 205.96875 271.0625 205.667969 270.761719 205.464844 C 247.25 186.195312 214.25 183.269531 187.710938 198.101562 C 182.96875 200.722656 179.535156 202.640625 179.535156 202.640625 L 214.855469 221.910156 C 216.371094 230.082031 218.792969 239.566406 222.425781 250.261719 C 226.058594 261.054688 239.984375 254.09375 260.0625 259.238281 C 263.191406 256.816406 266.722656 254.398438 270.558594 252.175781 L 288.21875 261.863281 Z M 442.410156 388.582031 L 475.007812 369.714844 C 475.007812 369.714844 501.242188 306.355469 473.796875 243.601562 C 467.742188 229.679688 450.886719 224.027344 437.566406 231.191406 C 437.46875 231.292969 437.265625 231.292969 437.164062 231.394531 L 405.679688 249.757812 L 442.410156 353.066406 Z M 361.582031 602.46875 L 364.207031 615.484375 C 401.945312 620.328125 432.523438 612.457031 452.097656 604.6875 L 454.621094 590.96875 C 434.742188 599.339844 402.046875 608.21875 361.582031 602.46875 Z M 294.675781 509.449219 C 294.675781 482.410156 270.257812 446.289062 240.488281 429.039062 C 222.929688 418.847656 207.1875 417.535156 197.296875 423.691406 L 163.691406 443.164062 C 173.582031 436.90625 189.425781 438.21875 207.085938 448.410156 C 236.855469 465.660156 261.273438 501.78125 261.273438 528.820312 C 261.273438 539.613281 257.339844 547.382812 250.78125 551.722656 L 283.273438 533.054688 C 290.335938 528.71875 294.675781 520.746094 294.675781 509.449219 Z M 251.6875 554.546875 L 254.714844 569.476562 C 266.21875 578.054688 280.347656 586.933594 297.097656 594.902344 C 300.628906 594.699219 304.164062 594.398438 307.695312 593.589844 C 310.722656 592.882812 313.648438 591.773438 316.574219 590.464844 C 289.226562 580.273438 267.734375 567.054688 251.6875 554.546875 Z M 530.003906 548.59375 C 529.601562 548.796875 529.195312 549.097656 528.792969 549.300781 L 530.304688 556.765625 C 531.113281 557.773438 531.921875 558.683594 532.726562 559.691406 C 553.515625 547.484375 592.972656 522.261719 618 476.253906 L 621.53125 456.882812 C 595.695312 509.246094 550.890625 536.585938 530.003906 548.59375 Z M 580.15625 223.421875 C 582.980469 221.101562 587.21875 218.277344 592.46875 216.664062 C 592.570312 219.488281 592.972656 222.210938 593.679688 224.9375 C 595.898438 233.109375 600.945312 239.261719 607.90625 242.289062 C 613.253906 244.609375 619.109375 243.902344 623.75 240.375 C 628.695312 236.640625 631.21875 230.183594 630.308594 224.027344 C 629.601562 219.691406 626.574219 211.71875 614.0625 207.28125 C 610.832031 206.171875 607.804688 205.464844 604.878906 205.164062 C 605.585938 203.144531 606.496094 201.226562 607.605469 199.210938 C 608.816406 196.988281 608.3125 194.164062 606.191406 192.753906 L 605.6875 192.449219 C 603.265625 190.734375 599.933594 191.542969 598.523438 194.0625 C 596.402344 197.796875 594.789062 201.730469 593.78125 205.667969 C 584.292969 207.484375 576.828125 212.628906 572.488281 216.359375 C 575.011719 218.683594 577.632812 221.003906 580.15625 223.421875 Z M 610.429688 217.167969 C 615.980469 219.1875 619.410156 222.210938 619.914062 225.742188 C 620.117188 226.855469 620.015625 228.066406 619.613281 229.074219 C 619.210938 230.285156 618.402344 231.394531 617.394531 232.199219 C 616.28125 233.007812 614.464844 233.816406 612.144531 232.804688 C 608.109375 230.992188 605.183594 227.257812 603.769531 222.210938 C 603.164062 220.09375 602.863281 217.875 602.960938 215.554688 C 605.285156 215.65625 607.804688 216.261719 610.429688 217.167969 Z M 610.429688 217.167969 " fill-opacity="1" fill-rule="nonzero"/><path fill="#36373b" d="M 446.246094 636.671875 L 443.722656 650.796875 C 442.816406 655.335938 439.382812 659.875 433.328125 663.304688 C 420.917969 670.46875 401.746094 671.378906 387.617188 666.03125 L 383.78125 655.234375 L 380.046875 662.195312 C 375.203125 658.96875 372.378906 655.132812 371.472656 651.097656 L 368.445312 636.066406 C 369.351562 641.109375 373.085938 645.953125 379.644531 649.6875 C 394.984375 658.5625 420.007812 658.5625 435.246094 649.6875 C 441.503906 646.15625 445.136719 641.511719 446.246094 636.671875 Z M 594.585938 557.671875 C 579.25 566.550781 554.222656 566.550781 538.984375 557.671875 C 534.542969 555.152344 531.414062 552.125 529.601562 548.894531 C 529.195312 549.097656 528.792969 549.300781 528.792969 549.300781 L 530.710938 558.984375 C 531.617188 563.019531 534.445312 566.855469 539.289062 570.082031 L 543.019531 563.121094 L 546.855469 573.917969 C 560.984375 579.164062 580.15625 578.253906 592.570312 571.191406 C 598.625 567.660156 602.054688 563.222656 602.960938 558.683594 L 605.484375 544.558594 C 604.578125 549.402344 600.945312 554.042969 594.585938 557.671875 Z M 290.335938 408.355469 C 283.070312 404.21875 277.21875 407.546875 277.21875 415.921875 C 277.21875 424.296875 283.171875 434.488281 290.335938 438.722656 C 297.601562 442.859375 303.457031 439.53125 303.457031 431.15625 C 303.558594 422.78125 297.601562 412.59375 290.335938 408.355469 Z M 219.496094 367.394531 C 212.230469 363.257812 206.378906 366.585938 206.378906 374.960938 C 206.378906 383.335938 212.332031 393.523438 219.496094 397.761719 C 226.761719 401.898438 232.617188 398.570312 232.617188 390.195312 C 232.617188 381.820312 226.761719 371.632812 219.496094 367.394531 Z M 311.527344 588.546875 C 296.796875 592.785156 278.429688 591.371094 266.117188 584.308594 C 259.558594 580.476562 255.824219 575.632812 254.917969 570.6875 L 257.945312 585.722656 C 258.851562 589.757812 261.679688 593.589844 266.523438 596.820312 L 270.257812 589.859375 L 274.089844 600.652344 C 288.21875 605.898438 307.390625 604.992188 319.804688 597.929688 C 322.023438 596.617188 323.839844 595.203125 325.453125 593.691406 C 320.710938 592.078125 316.070312 590.363281 311.527344 588.546875 Z M 311.527344 588.546875 " fill-opacity="1" fill-rule="nonzero"/><path fill="#ff8f8f" d="M 359.058594 233.917969 L 440.496094 186.902344 C 441.90625 186.09375 443.722656 186.09375 445.238281 186.902344 L 448.464844 188.71875 C 451.292969 190.332031 451.59375 194.164062 449.273438 196.183594 C 449.070312 195.980469 448.769531 195.679688 448.464844 195.578125 L 445.238281 193.761719 C 443.824219 192.953125 442.007812 192.953125 440.496094 193.761719 L 359.058594 240.777344 C 358.757812 240.976562 358.453125 241.179688 358.25 241.382812 C 355.929688 239.363281 356.234375 235.53125 359.058594 233.917969 Z M 237.863281 225.742188 C 204.058594 197.496094 179.4375 202.539062 179.4375 202.539062 C 179.4375 202.539062 170.453125 238.65625 203.453125 305.648438 C 203.453125 305.648438 227.066406 255.304688 288.117188 261.761719 C 288.117188 261.761719 271.667969 253.992188 237.863281 225.742188 Z M 361.378906 291.222656 C 360.875 292.332031 379.34375 301.613281 386.40625 305.648438 C 403.660156 315.535156 432.925781 344.894531 442.410156 388.582031 C 442.410156 388.582031 475.308594 308.878906 428.6875 239.769531 C 428.6875 239.769531 378.738281 255.101562 361.378906 291.222656 Z M 361.378906 291.222656 " fill-opacity="1" fill-rule="nonzero"/></svg>