<svg xmlns="http://www.w3.org/2000/svg" width="1080" viewBox="0 0 810 810" height="1080" version="1.0"><defs><clipPath id="a"><path d="M6.375 6.375H810V810H6.375Zm0 0"/></clipPath><clipPath id="b"><path d="M408.188 6.375C186.273 6.375 6.375 186.273 6.375 408.188 6.375 630.101 186.273 810 408.188 810 630.101 810 810 630.102 810 408.187 810 186.274 630.102 6.375 408.187 6.375Zm0 0"/></clipPath><clipPath id="c"><path d="M109.414 59.094H480V586H109.414Zm0 0"/></clipPath><clipPath id="d"><path d="M156 329h598.414v401H156Zm0 0"/></clipPath><clipPath id="e"><path d="M323 569h271v181.594H323Zm0 0"/></clipPath></defs><g clip-path="url(#a)"><g clip-path="url(#b)"><path fill="#193564" d="M6.375 6.375H810V810H6.375Zm0 0"/></g></g><path fill="#ffbd00" d="M364.473 636.563c-4.102 2.238-8.203 4.101-12.305 6.34-10.441-17.528-22.746-32.813-35.426-46.61v-31.324c20.512 23.117 35.797 48.101 47.73 71.593ZM391.695 591.816v15.66c-6.715-27.218-16.406-51.085-28.715-72.71a289.872 289.872 0 0 0-38.406-53.7h23.492a425.118 425.118 0 0 1 14.543 24.614c13.422 24.61 22.371 49.218 28.34 72.34Zm0 0"/><g clip-path="url(#c)"><path fill="#ffbd00" d="m291.012 113.395-108.883 121.19c13.422 5.22 25.73 10.813 37.66 16.407 12.309 5.965 23.867 12.68 34.309 19.39 21.254 13.423 39.152 28.34 54.816 43.63 22.371 22 39.524 45.492 52.574 69.355 9.325 16.41 16.782 33.188 22.375 49.598 4.477 12.676 8.203 24.984 10.813 37.289h-7.457c-6.711-20.883-15.29-39.899-25.356-57.426-2.61-4.476-5.222-8.578-7.832-12.68-24.984-38.035-56.68-66.746-88.746-88.375-10.441-7.086-21.258-13.425-31.7-19.015l-52.948 59.289c12.304 4.848 24.238 10.066 35.425 15.66 12.305 5.969 23.864 12.305 34.68 19.39 39.153 24.614 68.238 53.325 89.867 83.528h-26.476c-26.477-26.473-55.934-46.238-83.528-61.152l-55.187 61.152c55.934 21.629 98.07 50.715 129.39 82.41v16.035h.376v16.035c-84.274-81.664-195.77-98.445-195.77-98.445l84.648-94.715c-44.75-18.644-79.054-23.863-79.054-23.863l82.781-92.48c-45.863-19.391-81.289-24.61-81.289-24.61L287.656 59.324c152.14 96.207 188.313 223.363 191.668 313.23h-13.797c-26.476-190.546-174.515-259.16-174.515-259.16Zm0 0"/></g><path fill="#ffbd00" d="M479.7 383.367a372.838 372.838 0 0 1-5.223 67.496c-3.356 20.883-7.457 32.813-7.457 32.813a470.15 470.15 0 0 0 2.609-59.66c-.371-14.172-1.117-27.594-2.61-40.649h12.68Zm0 0"/><g clip-path="url(#d)"><path fill="#ebf0ed" d="M156.027 728.668s262.516-28.711 507.508-316.586l-44.004-14.543 134.989-68.238-33.188 138.715-21.629-28.711c-.371-.375-235.293 302.789-543.676 289.363Zm0 0"/></g><path fill="#ffbd00" d="M391.695 591.816v29.832c-9.324 5.594-18.644 10.442-27.593 15.29-4.102 2.238-8.204 4.101-12.309 6.34-11.93 6.335-23.863 11.929-35.05 16.777v-36.168h-.372v-142.82h74.95v66.75h.374Zm0 0"/><path fill="#ffbd00" d="M391.695 591.816v29.832c-9.324 5.594-18.644 10.442-27.593 15.29-4.102 2.238-8.204 4.101-12.309 6.34-11.93 6.335-23.863 11.929-35.05 16.777v-36.168h-.372v-142.82h74.95v66.75h.374ZM493.121 494.117v59.664c-25.73 19.762-51.086 36.918-75.324 52.203v-48.101h-.371v-174.14h74.949v66.374h.375Zm0 0"/><path fill="#ffbd00" d="M493.121 494.117v59.664c-25.73 19.762-51.086 36.918-75.324 52.203v-48.101h-.371v-174.14h74.949v66.374h.375ZM593.8 396.047v69.36c-25.355 25.355-50.71 47.73-75.695 68.238V285.672h74.954v66.375h.37Zm0 0"/><path fill="#ffbd00" d="M593.8 396.047v69.36c-25.355 25.355-50.71 47.73-75.695 68.238V285.672h74.954v66.375h.37Zm0 0"/><g clip-path="url(#e)"><path fill="#ebf0ed" d="M593.8 569.441v131.633c0 27.223-22 49.594-49.593 49.594H365.594c-17.528 0-32.817-8.95-41.766-22.746 110.75-34.305 203.973-100.68 269.973-158.48Zm0 0"/></g><path fill="#ffbd00" d="M311.895 243.16c6.71-8.95 3.73-19.762-6.711-33.558-.375-.375-.375-.747-.747-1.122l13.797-18.27c6.711 5.22 10.813 11.188 12.68 14.915l9.695-5.594c-2.613-5.219-8.203-11.93-16.035-17.898l10.442-13.797-7.832-5.965-10.813 14.543c-13.797-7.086-26.105-5.223-32.07 2.98-5.219 7.086-3.356 17.528 6.71 31.325l-15.66 20.883c-6.71-5.22-12.304-12.68-14.542-17.899l-9.696 5.965c3.356 6.34 10.07 13.797 18.274 20.137l-7.086 9.324 7.832 5.965 7.457-10.067c14.543 7.828 27.594 6.711 34.305-1.867Zm-13.797-55.187c2.238-2.985 6.34-3.73 10.816-2.61l-10.441 13.797c-2.239-4.476-2.614-8.203-.375-11.187Zm-14.543 48.101 12.68-17.152c3.726 6.34 4.1 10.816 1.117 14.918-2.61 3.726-7.457 4.472-13.797 2.234Zm0 0"/></svg>