<svg xmlns="http://www.w3.org/2000/svg" xmlns:xlink="http://www.w3.org/1999/xlink" width="1080" zoomAndPan="magnify" viewBox="0 0 810 809.999993" height="1080" preserveAspectRatio="xMidYMid meet" version="1.0"><defs><clipPath id="599003fd79"><path d="M 228 167.769531 L 660.320312 167.769531 L 660.320312 475 L 228 475 Z M 228 167.769531 " clip-rule="nonzero"/></clipPath><clipPath id="5c5f7db2a2"><path d="M 149.570312 409 L 383 409 L 383 642.519531 L 149.570312 642.519531 Z M 149.570312 409 " clip-rule="nonzero"/></clipPath><clipPath id="edfc78b056"><path d="M 370 409 L 603 409 L 603 642.519531 L 370 642.519531 Z M 370 409 " clip-rule="nonzero"/></clipPath></defs><rect x="-81" width="972" fill="#ffffff" y="-80.999999" height="971.999992" fill-opacity="1"/><rect x="-81" width="972" fill="#ffffff" y="-80.999999" height="971.999992" fill-opacity="1"/><path fill="#0c9dbd" d="M 348.347656 358.601562 L 348.347656 571.796875 L 289.363281 571.796875 L 289.363281 417.746094 Z M 560.003906 273.234375 L 560.003906 571.796875 L 501.019531 571.796875 L 501.019531 332.265625 L 504.878906 328.40625 Z M 454.175781 355.082031 L 454.175781 571.796875 L 395.191406 571.796875 L 395.191406 320.6875 L 407.554688 308.3125 Z M 454.175781 355.082031 " fill-opacity="1" fill-rule="evenodd"/><g clip-path="url(#599003fd79)"><path fill="#d04d4d" d="M 407.554688 260.519531 L 470.167969 323.296875 L 572.027344 221.355469 L 549.457031 198.761719 L 604.808594 183.324219 L 660.160156 167.769531 L 644.734375 223.171875 L 629.195312 278.570312 L 606.625 255.976562 L 504.878906 357.921875 L 470.167969 392.546875 L 407.554688 329.765625 L 263.273438 474.167969 L 228.679688 439.429688 Z M 407.554688 260.519531 " fill-opacity="1" fill-rule="evenodd"/></g><path fill="#fcb13b" d="M 177.75 419.789062 L 204.066406 446.128906 C 199.300781 449.875 194.648438 453.960938 190.339844 458.273438 C 185.917969 462.703125 181.945312 467.242188 178.203125 472.011719 L 151.886719 445.671875 Z M 354.472656 419.789062 L 328.15625 446.128906 C 332.917969 449.875 337.570312 453.960938 341.878906 458.273438 C 346.304688 462.703125 350.386719 467.242188 354.015625 472.011719 L 380.332031 445.671875 Z M 354.472656 419.789062 " fill-opacity="1" fill-rule="evenodd"/><path fill="#fcb13b" d="M 238.773438 356.898438 L 293.332031 356.898438 C 302.066406 356.898438 309.214844 364.050781 309.214844 372.792969 C 309.214844 381.535156 302.066406 388.683594 293.332031 388.683594 L 238.773438 388.683594 C 230.039062 388.683594 222.894531 381.535156 222.894531 372.792969 C 222.894531 364.050781 230.039062 356.898438 238.773438 356.898438 Z M 238.773438 356.898438 " fill-opacity="1" fill-rule="evenodd"/><path fill="#ffcd05" d="M 281.082031 388.683594 L 281.082031 419.109375 C 276.207031 418.542969 271.214844 418.203125 266.109375 418.203125 C 261.007812 418.203125 256.015625 418.542969 251.136719 419.109375 L 251.136719 388.683594 Z M 281.082031 388.683594 " fill-opacity="1" fill-rule="evenodd"/><g clip-path="url(#5c5f7db2a2)"><path fill="#ffcd05" d="M 266.109375 409.574219 C 330.3125 409.574219 382.488281 461.679688 382.488281 526.046875 C 382.488281 590.414062 330.425781 642.519531 266.109375 642.519531 C 201.796875 642.519531 149.730469 590.300781 149.730469 526.046875 C 149.730469 461.679688 201.796875 409.574219 266.109375 409.574219 Z M 266.109375 409.574219 " fill-opacity="1" fill-rule="evenodd"/></g><path fill="#ffffff" d="M 266.109375 438.863281 C 314.089844 438.863281 353.109375 477.914062 353.109375 525.933594 C 353.109375 574.066406 314.089844 613.003906 266.109375 613.003906 C 218.015625 613.003906 179.109375 573.953125 179.109375 525.933594 C 179.109375 477.914062 218.015625 438.863281 266.109375 438.863281 Z M 266.109375 438.863281 " fill-opacity="1" fill-rule="evenodd"/><path fill="#d04d4d" d="M 261.574219 453.621094 C 261.574219 451.121094 263.613281 449.078125 266.109375 449.078125 C 268.605469 449.078125 270.648438 451.121094 270.648438 453.621094 L 270.648438 459.183594 C 270.648438 461.679688 268.605469 463.722656 266.109375 463.722656 C 263.613281 463.722656 261.574219 461.679688 261.574219 459.183594 Z M 330.992188 558.289062 C 333.148438 559.535156 333.941406 562.261719 332.578125 564.53125 C 331.332031 566.6875 328.609375 567.484375 326.453125 566.121094 L 321.578125 563.28125 C 319.421875 562.035156 318.628906 559.308594 319.988281 557.152344 C 321.238281 554.996094 323.957031 554.199219 326.113281 555.5625 Z M 338.363281 521.507812 C 340.859375 521.507812 342.902344 523.550781 342.902344 526.046875 C 342.902344 528.542969 340.859375 530.589844 338.363281 530.589844 L 332.804688 530.589844 C 330.3125 530.589844 328.269531 528.542969 328.269531 526.046875 C 328.269531 523.550781 330.3125 521.507812 332.804688 521.507812 Z M 326.453125 485.859375 C 328.609375 484.613281 331.332031 485.292969 332.578125 487.5625 C 333.828125 489.71875 333.148438 492.445312 330.992188 493.695312 L 326.113281 496.417969 C 323.957031 497.667969 321.125 496.984375 319.988281 494.828125 C 318.742188 492.671875 319.421875 489.949219 321.578125 488.699219 Z M 226.070312 465.652344 C 224.820312 463.496094 225.503906 460.773438 227.769531 459.523438 C 229.925781 458.273438 232.648438 458.957031 233.894531 461.113281 L 236.730469 465.992188 C 237.980469 468.152344 237.1875 470.875 235.03125 472.125 C 232.875 473.375 230.152344 472.691406 228.90625 470.421875 Z M 201.230469 493.808594 C 199.074219 492.558594 198.28125 489.832031 199.527344 487.675781 C 200.773438 485.519531 203.496094 484.726562 205.652344 485.972656 L 210.53125 488.8125 C 212.683594 490.0625 213.480469 492.785156 212.230469 494.941406 C 210.984375 497.097656 208.261719 497.894531 206.105469 496.53125 Z M 193.855469 530.589844 C 191.359375 530.589844 189.320312 528.542969 189.320312 526.046875 C 189.320312 523.550781 191.359375 521.507812 193.855469 521.507812 L 199.414062 521.507812 C 201.910156 521.507812 203.953125 523.550781 203.953125 526.046875 C 203.953125 528.542969 201.910156 530.589844 199.414062 530.589844 Z M 205.765625 566.121094 C 203.609375 567.371094 200.886719 566.574219 199.640625 564.417969 C 198.394531 562.261719 199.1875 559.535156 201.34375 558.289062 L 206.21875 555.5625 C 208.375 554.3125 211.097656 554.996094 212.34375 557.152344 C 213.59375 559.308594 212.796875 562.148438 210.644531 563.28125 Z M 233.894531 590.867188 C 232.648438 593.027344 229.925781 593.820312 227.769531 592.570312 C 225.617188 591.324219 224.820312 588.484375 226.183594 586.328125 L 228.90625 581.445312 C 230.152344 579.289062 232.875 578.496094 235.144531 579.855469 C 237.300781 581.105469 238.09375 583.832031 236.730469 585.988281 Z M 270.648438 598.359375 C 270.648438 600.859375 268.605469 602.902344 266.109375 602.902344 C 263.613281 602.902344 261.574219 600.859375 261.574219 598.359375 L 261.574219 592.796875 C 261.574219 590.300781 263.613281 588.257812 266.109375 588.257812 C 268.605469 588.257812 270.648438 590.300781 270.648438 592.796875 Z M 306.152344 586.328125 C 307.398438 588.484375 306.71875 591.324219 304.5625 592.570312 C 302.40625 593.820312 299.683594 593.140625 298.4375 590.867188 L 295.601562 585.988281 C 294.355469 583.832031 295.035156 581.105469 297.191406 579.855469 C 299.34375 578.609375 302.179688 579.289062 303.429688 581.445312 Z M 298.324219 461.113281 C 299.570312 458.957031 302.292969 458.160156 304.449219 459.523438 C 306.605469 460.773438 307.398438 463.496094 306.035156 465.652344 L 303.316406 470.535156 C 302.066406 472.691406 299.34375 473.488281 297.078125 472.125 C 294.921875 470.875 294.128906 468.152344 295.488281 465.992188 Z M 298.324219 461.113281 " fill-opacity="1" fill-rule="nonzero"/><path fill="#d04d4d" d="M 261.574219 474.960938 C 261.574219 472.464844 263.613281 470.421875 266.109375 470.421875 C 268.605469 470.421875 270.648438 472.464844 270.648438 474.960938 L 270.761719 523.550781 L 301.160156 543.074219 C 303.203125 544.4375 303.882812 547.277344 302.519531 549.320312 C 301.160156 551.476562 298.324219 552.042969 296.28125 550.683594 L 263.726562 529.792969 C 262.480469 529 261.6875 527.636719 261.6875 526.046875 Z M 261.574219 474.960938 " fill-opacity="1" fill-rule="nonzero"/><path fill="#d04d4d" d="M 266.109375 508.222656 C 275.863281 508.222656 283.917969 516.171875 283.917969 526.046875 C 283.917969 535.925781 275.976562 543.871094 266.109375 543.871094 C 256.242188 543.871094 248.300781 535.925781 248.300781 526.046875 C 248.300781 516.171875 256.242188 508.222656 266.109375 508.222656 Z M 266.109375 508.222656 " fill-opacity="1" fill-rule="evenodd"/><g clip-path="url(#edfc78b056)"><path fill="#686868" d="M 486.617188 409.574219 C 550.929688 409.574219 602.992188 461.679688 602.992188 526.046875 C 602.992188 590.414062 550.929688 642.519531 486.617188 642.519531 C 422.300781 642.519531 370.238281 590.414062 370.238281 526.046875 C 370.351562 461.679688 422.414062 409.574219 486.617188 409.574219 Z M 486.617188 409.574219 " fill-opacity="1" fill-rule="evenodd"/></g><path fill="#b3b4b4" d="M 504.539062 464.746094 C 514.519531 467.695312 523.480469 472.917969 530.851562 479.957031 L 550.25 473.601562 L 563.972656 497.328125 L 548.773438 510.835938 C 551.269531 520.824219 551.269531 531.269531 548.773438 541.257812 L 563.972656 554.882812 L 550.136719 578.496094 L 530.738281 572.136719 C 523.480469 579.175781 514.40625 584.398438 504.425781 587.347656 L 500.226562 607.328125 C 491.039062 607.328125 481.964844 607.328125 472.777344 607.328125 L 468.582031 587.347656 C 458.597656 584.398438 449.636719 579.175781 442.265625 572.136719 L 422.867188 578.496094 L 409.484375 554.769531 L 424.683594 541.144531 C 422.1875 531.15625 422.1875 520.710938 424.683594 510.722656 L 409.484375 497.328125 L 423.210938 473.601562 L 442.605469 479.957031 C 449.863281 472.917969 458.9375 467.695312 468.921875 464.746094 L 473.117188 444.765625 C 482.304688 444.765625 491.378906 444.765625 500.566406 444.765625 Z M 486.617188 490.855469 C 506.011719 490.855469 521.664062 506.523438 521.664062 525.933594 C 521.664062 545.347656 506.011719 561.011719 486.617188 561.011719 C 467.21875 561.011719 451.566406 545.347656 451.566406 525.933594 C 451.566406 506.636719 467.21875 490.855469 486.617188 490.855469 Z M 486.617188 490.855469 " fill-opacity="1" fill-rule="evenodd"/></svg>