<svg xmlns="http://www.w3.org/2000/svg" xmlns:xlink="http://www.w3.org/1999/xlink" width="1080" zoomAndPan="magnify" viewBox="0 0 810 809.999993" height="1080" preserveAspectRatio="xMidYMid meet" version="1.0"><defs><clipPath id="eea8536461"><path d="M 346.007812 545.511719 L 491.1875 545.511719 L 491.1875 676.140625 L 346.007812 676.140625 Z M 346.007812 545.511719 " clip-rule="nonzero"/></clipPath><clipPath id="6747f8462e"><path d="M 189.265625 467.570312 L 647.960938 467.570312 L 647.960938 598.1875 L 189.265625 598.1875 Z M 189.265625 467.570312 " clip-rule="nonzero"/></clipPath></defs><path fill="#d5604a" d="M 519.5 452.417969 L 545.117188 452.417969 L 545.117188 303.128906 C 545.117188 298.390625 548.953125 294.550781 553.695312 294.550781 L 592.675781 294.550781 C 597.414062 294.550781 601.253906 298.390625 601.253906 303.128906 L 601.253906 452.417969 L 626.863281 452.417969 C 632.980469 452.417969 636.160156 459.707031 631.996094 464.1875 L 578.316406 522.015625 C 575.546875 525 570.820312 525 568.050781 522.015625 L 514.367188 464.1875 C 510.210938 459.707031 513.390625 452.417969 519.5 452.417969 " fill-opacity="1" fill-rule="nonzero"/><path stroke-linecap="round" transform="matrix(0.0274171, 0, 0, -0.0274171, 189.263972, 676.140346)" fill="none" stroke-linejoin="round" d="M 12045.048081 8159.96648 L 12979.257341 8159.96648 L 12979.257341 13605.222496 C 12979.257341 13778.044798 13119.310369 13918.097825 13292.275145 13918.097825 L 14714.034213 13918.097825 C 14886.856514 13918.097825 15026.909542 13778.044798 15026.909542 13605.222496 L 15026.909542 8159.96648 L 15960.976327 8159.96648 C 16184.09234 8159.96648 16300.067075 7894.107935 16148.188614 7730.68899 L 14190.153254 5621.630019 C 14089.28088 5512.636564 13916.886003 5512.636564 13815.728679 5621.630019 L 11857.835794 7730.68899 C 11706.242283 7894.107935 11822.074543 8159.96648 12045.048081 8159.96648 Z M 12045.048081 8159.96648 " stroke="#20257f" stroke-width="260.12799" stroke-opacity="1" stroke-miterlimit="10"/><path fill="#2878b5" d="M 317.726562 292.441406 L 292.113281 292.441406 L 292.113281 441.730469 C 292.113281 446.46875 288.273438 450.308594 283.535156 450.308594 L 244.554688 450.308594 C 239.816406 450.308594 235.976562 446.46875 235.976562 441.730469 L 235.976562 292.441406 L 210.363281 292.441406 C 204.246094 292.441406 201.070312 285.152344 205.230469 280.671875 L 258.910156 222.84375 C 261.683594 219.859375 266.40625 219.859375 269.175781 222.84375 L 322.859375 280.671875 C 327.019531 285.152344 323.839844 292.441406 317.726562 292.441406 " fill-opacity="1" fill-rule="nonzero"/><path stroke-linecap="round" transform="matrix(0.0279931, 0, 0, -0.0279931, 189.263972, 676.140346)" fill="none" stroke-linejoin="round" d="M 4589.084916 13707.203531 L 3674.098518 13707.203531 L 3674.098518 8373.992435 C 3674.098518 8204.726231 3536.927307 8067.55502 3367.800646 8067.55502 L 1975.157021 8067.55502 C 1805.890816 8067.55502 1668.719606 8204.726231 1668.719606 8373.992435 L 1668.719606 13707.203531 L 753.733207 13707.203531 C 535.347709 13707.203531 421.759341 13967.452064 570.373115 14127.647944 L 2488.118741 16193.44917 C 2587.055047 16300.060365 2755.763077 16300.060365 2854.838926 16193.44917 L 4772.584552 14127.647944 C 4921.058782 13967.452064 4807.609958 13707.203531 4589.084916 13707.203531 Z M 4589.084916 13707.203531 " stroke="#20257f" stroke-width="254.776" stroke-opacity="1" stroke-miterlimit="10"/><path fill="#f5c116" d="M 500.839844 379.945312 C 498.992188 488.09375 338.214844 488.074219 336.386719 379.941406 C 338.230469 271.800781 499.007812 271.816406 500.839844 379.945312 " fill-opacity="1" fill-rule="nonzero"/><path stroke-linecap="round" transform="matrix(0.0248068, 0, 0, -0.0248068, 189.263972, 676.140346)" fill="none" stroke-linejoin="round" d="M 12560.394048 11940.369975 C 12486.069788 7580.590805 6004.584961 7581.378138 5930.890568 11940.527442 C 6005.214827 16299.991679 12486.542188 16299.361812 12560.394048 11940.369975 Z M 12560.394048 11940.369975 " stroke="#20257f" stroke-width="287.50201" stroke-opacity="1" stroke-miterlimit="10"/><path stroke-linecap="round" transform="matrix(0.0214129, 0, 0, -0.0214129, 189.263972, 676.140346)" fill="none" stroke-linejoin="round" d="M 11810.644919 14618.62473 L 11810.644919 14940.605084 C 11810.644919 15261.855737 11550.141834 15522.541247 11228.708756 15522.541247 L 10192.89887 15522.541247 C 9871.648217 15522.541247 9610.962707 15261.855737 9610.962707 14940.605084 L 9610.962707 14462.286394 C 9610.962707 14140.853316 9871.648217 13880.350231 10192.89887 13880.350231 L 11228.708756 13880.350231 C 11550.141834 13880.350231 11810.644919 13619.847146 11810.644919 13298.414067 L 11810.644919 12820.095377 C 11810.644919 12498.662299 11550.141834 12238.159214 11228.708756 12238.159214 L 10192.89887 12238.159214 C 9871.648217 12238.159214 9610.962707 12498.662299 9610.962707 12820.095377 L 9610.962707 13152.291538 " stroke="#20257f" stroke-width="333.064" stroke-opacity="1" stroke-miterlimit="10"/><path stroke-linecap="round" transform="matrix(0.0214129, 0, 0, -0.0214129, 189.263972, 676.140346)" fill="none" stroke-linejoin="round" d="M 10710.803813 12238.341639 L 10710.803813 11462.669988 " stroke="#20257f" stroke-width="333.064" stroke-opacity="1" stroke-miterlimit="10"/><path stroke-linecap="round" transform="matrix(0.0214129, 0, 0, -0.0214129, 189.263972, 676.140346)" fill="none" stroke-linejoin="round" d="M 10710.803813 16297.848048 L 10710.803813 15522.541247 " stroke="#20257f" stroke-width="333.064" stroke-opacity="1" stroke-miterlimit="10"/><path fill="#d5604a" d="M 405.582031 556.601562 L 351.65625 650.003906 C 345.867188 660.035156 353.105469 672.574219 364.6875 672.574219 L 472.539062 672.574219 C 484.121094 672.574219 491.363281 660.035156 485.570312 650.003906 L 431.644531 556.601562 C 425.851562 546.570312 411.375 546.570312 405.582031 556.601562 " fill-opacity="1" fill-rule="nonzero"/><g clip-path="url(#eea8536461)"><path stroke-linecap="round" transform="matrix(0.0214129, 0, 0, -0.0214129, 189.263972, 676.140346)" fill="none" stroke-linejoin="round" d="M 10102.233581 5582.560786 L 7583.854666 1220.593512 C 7313.500624 752.125779 7651.53439 166.541113 8192.424899 166.541113 L 13229.182727 166.541113 C 13770.073236 166.541113 14108.289427 752.125779 13837.752959 1220.593512 L 11319.374045 5582.560786 C 11048.837578 6051.028518 10372.770048 6051.028518 10102.233581 5582.560786 Z M 10102.233581 5582.560786 " stroke="#20257f" stroke-width="333.064" stroke-opacity="1" stroke-miterlimit="10"/></g><path fill="#9e968c" d="M 624.816406 594.113281 L 205.566406 503.191406 C 196.84375 501.300781 191.308594 492.699219 193.199219 483.980469 C 195.089844 475.257812 203.691406 469.722656 212.414062 471.613281 L 631.664062 562.539062 C 640.382812 564.429688 645.917969 573.03125 644.027344 581.75 C 642.136719 590.46875 633.535156 596.003906 624.816406 594.113281 " fill-opacity="1" fill-rule="nonzero"/><g clip-path="url(#6747f8462e)"><path stroke-linecap="round" transform="matrix(0.0280166, 0, 0, -0.0280166, 189.263972, 676.140346)" fill="none" stroke-linejoin="round" d="M 15546.770325 2927.938905 L 581.884254 6173.361082 C 270.545692 6240.843332 72.978857 6547.859684 140.461107 6859.05882 C 207.943357 7170.257957 514.959709 7367.964218 826.298271 7300.342542 L 15791.184342 4054.920365 C 16102.383478 3987.438115 16299.950313 3680.421763 16232.468063 3369.222627 C 16164.985813 3058.02349 15857.969461 2860.456655 15546.770325 2927.938905 Z M 15546.770325 2927.938905 " stroke="#20257f" stroke-width="254.56799" stroke-opacity="1" stroke-miterlimit="10"/></g></svg>